<svg width="60" height="60" viewBox="0 0 60 60" fill="none" xmlns="http://www.w3.org/2000/svg">
<g clip-path="url(#clip0_350_1645)">
<path d="M31.9469 27.1294C32.0248 27.1711 32.0672 27.1475 32.0867 27.162C32.2537 27.2822 32.4329 27.231 32.6447 27.3111C32.8755 27.4501 33.0525 27.5602 33.3349 27.5369C33.9075 27.6278 34.3971 27.781 34.9297 28.009C34.984 28.0439 34.9703 28.0466 34.969 28.0398C35.0375 28.1139 35.1295 28.1387 35.2813 28.1393C35.363 28.1484 35.3953 28.1557 35.4708 28.1872C35.5141 28.2114 35.5046 28.2224 35.5053 28.2152C35.5733 28.3014 35.6797 28.3132 35.8249 28.3648C35.8703 28.3907 35.8596 28.3993 35.8604 28.3925C35.9287 28.4796 36.0361 28.4906 36.1813 28.5438C36.2268 28.57 36.2152 28.5771 36.2167 28.5705C36.2514 28.6141 36.2899 28.6599 36.3688 28.7295C36.4039 28.7577 36.3882 28.7597 36.3869 28.7519C36.4721 28.8541 36.6111 28.8458 36.7849 28.9152C36.8451 28.9355 36.8385 28.942 36.8347 28.9393C36.9171 28.9146 36.9848 28.9387 37.0734 29.0605C37.116 29.1042 37.1037 29.1097 37.1055 29.1032C37.14 29.147 37.1778 29.193 37.2571 29.2614C37.2927 29.2887 37.2779 29.29 37.2773 29.2826C37.3167 29.3281 37.3624 29.3754 37.4546 29.4454C38.3615 29.9025 39.099 30.5067 39.8351 31.2089C39.9376 31.2744 39.9969 31.3059 40.0905 31.3802C40.132 31.4098 40.1197 31.419 40.1233 31.4122C40.1556 31.4575 40.1928 31.5025 40.2746 31.5657C40.3107 31.5908 40.2984 31.5952 40.3002 31.589C40.3347 31.6324 40.3728 31.6776 40.4522 31.7443C40.4882 31.7703 40.4759 31.7728 40.4771 31.7666C40.5116 31.8098 40.5503 31.8547 40.6297 31.9216C40.6659 31.9475 40.6535 31.9502 40.655 31.944C40.6896 31.9872 40.7276 32.0325 40.8072 32.0991C40.8434 32.125 40.831 32.1277 40.8323 32.1215C40.8668 32.1648 40.9053 32.2098 40.9847 32.2767C41.0209 32.3027 41.0084 32.305 41.0103 32.299C41.097 32.4018 41.1971 32.4962 41.3358 32.6244C41.3757 32.657 41.3636 32.6604 41.3639 32.6541C41.3986 32.6969 41.4375 32.742 41.5175 32.8093C41.5538 32.8354 41.5413 32.8376 41.5427 32.8314C41.5768 32.8748 41.6152 32.9196 41.6948 32.9856C41.7313 33.0109 41.7183 33.0158 41.7217 33.0097C41.765 33.0594 41.806 33.1144 41.8664 33.2168C42.3752 33.635 42.7445 34.1126 43.1054 34.6688C43.2966 34.865 43.3319 35.0908 43.5068 35.3007C44.0906 35.783 44.2337 36.4971 44.7262 37.046C44.8344 37.1957 44.9192 37.284 45.056 37.4064C45.1033 37.4451 45.0887 37.4558 45.0961 37.4504C45.194 37.573 45.1683 37.723 45.2035 37.9156C45.3985 38.2215 45.5729 38.4769 45.7649 38.7881C45.9106 39.041 46.0564 39.2301 46.1 39.5308C46.6419 40.4009 46.8236 41.3321 47.0376 42.3219C47.2385 42.7632 47.0715 43.1663 47.1653 43.618C47.1944 43.6861 47.2215 43.7445 47.2122 43.7753C47.2532 43.8672 47.2869 43.9362 47.2991 44.0723C47.3243 44.2143 47.0826 44.2466 47.2776 44.4113C47.3136 44.5415 47.3081 44.6183 47.2453 44.7349C47.2027 44.7756 47.2227 44.8339 47.21 44.862C47.0515 45.218 47.1791 45.5702 47.0722 45.9692C46.9844 47.9648 44.8231 50.6445 42.5016 50.7783C41.8898 50.9099 41.3439 50.9061 40.7222 50.8085C40.6164 50.7702 40.5841 50.7698 40.5035 50.7721C40.4255 50.7922 40.3959 50.8095 40.3237 50.798C40.2811 50.7693 40.2964 50.7675 40.2975 50.7751C40.2252 50.6934 40.1175 50.6809 39.9722 50.6248C39.1389 50.4624 38.5698 49.9216 37.9299 49.5128C37.5716 49.2838 37.2409 49.0021 36.7711 48.8854C36.3164 48.6193 35.8652 48.7624 35.3754 48.7877C35.3261 48.834 35.3277 48.821 35.333 48.8249C35.2922 48.8439 35.2461 48.859 35.1358 48.8399C33.7086 49.3252 32.6742 50.4434 31.2676 50.8915C31.0599 50.9577 30.8702 50.9363 30.5984 50.9591C30.3456 51.0812 30.1481 51.0242 29.8912 50.9931C28.8151 51.0561 28.0546 50.4799 27.3121 49.9472C26.8142 49.5899 26.288 49.2883 25.7519 49.0241C24.4995 48.4068 23.3664 48.8451 22.2788 49.5413C21.5183 50.0283 20.8592 50.7258 19.8013 50.7638C19.362 50.9563 18.9373 50.7941 18.4836 50.9389C15.9507 50.6181 14.2719 49.3418 13.5259 46.8747C13.4703 46.3719 13.329 45.955 13.1635 45.4914C13.1202 45.4497 13.1347 45.4473 13.1292 45.4522C13.0982 45.4093 13.0725 45.3614 13.0964 45.2487C13.146 45.184 13.1248 45.1472 13.1388 45.1313C13.2695 44.9142 13.2189 44.696 13.1939 44.4339C13.1712 44.385 13.1374 44.3264 13.1432 44.293C13.1219 44.2105 13.0948 44.1613 13.1084 44.0384C13.1491 43.9647 13.1368 43.8988 13.1534 43.8697C13.2994 43.3514 13.1277 42.8178 13.3957 42.2868C13.3662 41.9795 13.4117 41.7481 13.5327 41.4704C13.864 40.0093 14.4193 38.7084 15.282 37.4714C15.3559 37.3727 15.3915 37.3264 15.434 37.2325C15.4491 37.1911 15.4431 37.1898 15.4454 37.1877C15.4287 36.973 15.6934 36.9848 15.7707 36.768C16.1727 35.9519 16.7064 35.3033 17.2877 34.6335C17.5773 34.4427 17.5768 34.1469 17.7731 33.9146C19.3435 31.8404 21.4042 30.408 23.532 28.9668C23.7516 28.7691 23.9619 28.6926 24.2428 28.6334C25.2988 28.0162 26.3725 27.5958 27.573 27.3354C27.8383 27.1996 28.0713 27.2715 28.3478 27.2117C28.4075 27.1817 28.4698 27.1518 28.5038 27.1584C29.6439 26.9579 30.7584 27.1073 31.9469 27.1294Z" fill="#402751"/>
<path d="M33.0501 20.4077C32.6332 19.7778 32.2581 19.1916 32.3027 18.3754C32.1645 18.1142 32.1319 17.8933 32.1344 17.5951C32.131 17.4115 32.1269 17.2958 32.129 17.1223C31.9513 16.6979 32.0777 16.3087 32.0911 15.8571C32.1294 15.7838 32.1372 15.8002 32.1295 15.8048C32.2045 15.7272 32.2237 15.6279 32.1731 15.4705C32.1468 15.424 32.1159 15.3894 32.1278 15.3694C32.1176 15.3054 32.0956 15.2613 32.0953 15.1466C32.117 15.0759 32.1289 15.0864 32.1213 15.0841C32.2893 14.8718 32.2683 14.5882 32.3908 14.2901C32.382 14.0458 32.3547 13.8667 32.463 13.6334C32.4851 13.5697 32.4912 13.5765 32.4882 13.5799C32.464 13.4962 32.4892 13.4282 32.6136 13.3408C32.6588 13.299 32.662 13.3133 32.6549 13.3148C32.7965 13.198 32.734 13.0217 32.7994 12.8202C32.8293 12.7681 32.837 12.7789 32.8303 12.7784C32.9176 12.7098 32.9283 12.6018 32.9834 12.457C33.0106 12.4119 33.0144 12.424 33.0081 12.4245C33.0939 12.3555 33.1059 12.248 33.1599 12.1023C33.1868 12.0569 33.1916 12.0687 33.1853 12.0688C33.2718 12.0002 33.2834 11.8927 33.3373 11.7472C33.364 11.7018 33.3699 11.7135 33.3635 11.7123C33.4077 11.6775 33.4529 11.6378 33.5197 11.5554C33.6641 11.3076 33.7806 11.0954 33.9444 10.8594C34.2423 10.683 34.3544 10.4136 34.5675 10.1505C34.6053 10.1034 34.6136 10.1158 34.6067 10.1128C34.6518 10.0816 34.6966 10.0446 34.7578 9.9623C34.7815 9.92557 34.7929 9.93937 34.7859 9.93382C34.8391 9.88576 34.8989 9.84271 35.0105 9.78094C35.0627 9.76285 35.058 9.76879 35.0546 9.76701C35.1997 9.70042 35.3538 9.66317 35.5744 9.65298C35.7272 9.5745 35.8227 9.51382 35.9706 9.43052C36.1596 9.28018 36.34 9.34252 36.5508 9.26925C36.6057 9.23991 36.633 9.21469 36.6469 9.22699C36.7189 9.21356 36.777 9.18782 36.9225 9.20029C37.0099 9.23849 37.0118 9.23047 37.0126 9.23451C37.0584 9.21702 37.1034 9.19549 37.2197 9.19631C37.2911 9.21866 37.2804 9.22675 37.2803 9.22005C37.3948 9.36819 37.5725 9.30013 37.7719 9.36825C37.8236 9.39856 37.8124 9.40448 37.8121 9.39812C37.8811 9.48468 37.9892 9.49619 38.1344 9.55221C38.1794 9.58008 38.1669 9.58293 38.1659 9.57659C38.2356 9.66103 38.3428 9.67385 38.4889 9.72744C38.5344 9.75423 38.5226 9.76094 38.5248 9.75453C38.5589 9.79736 38.5947 9.8436 38.6552 9.92538C39.1024 10.1469 39.3926 10.4953 39.7327 10.8624C39.8304 11.2519 40.2113 11.4317 40.2654 11.8522C40.3072 11.9005 40.2918 11.8952 40.2939 11.8873C40.3322 11.9272 40.372 11.9717 40.4519 12.039C40.4883 12.065 40.4744 12.0689 40.4796 12.0638C40.5503 12.1498 40.5591 12.2601 40.6124 12.412C40.9592 12.5905 40.7565 12.9618 40.9733 13.203C41.0835 13.3621 41.1542 13.4776 41.1772 13.6859C41.1771 13.7544 41.1825 13.7589 41.179 13.758C41.348 14.3887 41.4866 15.0253 41.5029 15.7477C41.5469 15.8092 41.5315 15.8005 41.5351 15.7924C41.7236 16.1491 41.6251 16.5333 41.5758 16.9831C41.5348 17.0889 41.5341 17.1229 41.5125 17.2033C41.4917 17.2498 41.4632 17.3164 41.4813 17.3478C41.4995 17.3792 41.5398 17.4418 41.5329 17.4784C41.5529 17.5673 41.5797 17.6196 41.5678 17.7511C41.529 17.8303 41.5549 17.8642 41.5407 17.8802C41.4151 18.049 41.4693 18.2374 41.3838 18.4595C41.3498 18.5159 41.3721 18.5462 41.3624 18.5623C41.3727 18.6913 41.3125 18.7847 41.2645 18.9362C41.2094 19.0871 41.1609 19.1821 41.0506 19.3006C40.82 20.7501 39.4823 22.1689 37.9094 22.5478C37.7542 22.612 37.6421 22.6284 37.4961 22.698C37.4568 22.7376 37.4575 22.7249 37.463 22.7281C37.4234 22.7475 37.3782 22.7637 37.2701 22.7452C37.2072 22.7105 37.1496 22.7274 37.1254 22.7097C36.8311 22.693 36.563 22.6672 36.2274 22.6395C35.9759 22.6463 35.7933 22.6298 35.5498 22.5864C35.4891 22.5535 35.5007 22.5475 35.4999 22.5539C35.4633 22.507 35.4203 22.46 35.3309 22.3919C34.5214 22.1816 33.9111 21.7866 33.5447 20.9913C33.34 20.8117 33.1628 20.678 33.0501 20.4077Z" fill="#402751"/>
<path d="M22.4136 22.5786C20.4044 21.9422 19.5064 20.4586 18.9981 18.5769C18.7815 18.1516 18.9492 17.7577 18.8796 17.3146C18.8459 17.2162 18.8332 17.1866 18.8217 17.1087C18.7933 17.0343 18.7636 17.0082 18.7377 16.9229C18.8291 16.6754 18.7915 16.4789 18.7692 16.2259C18.7571 16.1286 18.7544 16.0894 18.7872 16.0032C18.8227 15.9562 18.8072 15.9014 18.8189 15.8754C18.8032 15.7997 18.7759 15.7499 18.7882 15.6247C18.8279 15.5493 18.8057 15.5081 18.8201 15.4897C18.88 15.3958 18.9027 15.3137 18.9078 15.1607C19.0171 14.7192 19.0841 14.3363 19.1298 13.8886C19.1643 13.8329 19.1686 13.8451 19.1624 13.8468C19.3065 13.7306 19.2423 13.5533 19.3103 13.3524C19.3413 13.3007 19.346 13.3125 19.3398 13.3139C19.4412 13.2359 19.4376 13.1051 19.5082 12.9421C19.5354 12.8883 19.511 12.8498 19.5241 12.8312C19.5974 12.7197 19.6154 12.6127 19.6657 12.4606C19.6926 12.4137 19.7019 12.4239 19.695 12.4232C19.7461 12.3824 19.7969 12.3348 19.8664 12.2335C19.8934 12.1884 19.8725 12.1555 19.8859 12.1414C19.9417 12.0219 19.9711 11.9128 20.0199 11.7522C20.0483 11.7032 20.0571 11.7142 20.0503 11.7124C20.0933 11.6775 20.1391 11.6394 20.2078 11.5603C20.2353 11.525 20.2378 11.5395 20.2306 11.5409C20.3737 11.3949 20.408 11.1774 20.5689 10.9646C20.9121 10.6015 21.2259 10.2926 21.5924 9.96249C21.69 9.90139 21.7343 9.86097 21.8047 9.78363C21.831 9.74718 21.8315 9.75999 21.8252 9.75856C21.8764 9.69954 21.93 9.63861 22.0408 9.58404C22.1012 9.59323 22.0981 9.59028 22.096 9.58999C22.2119 9.5453 22.3294 9.49976 22.4998 9.4358C22.5448 9.39175 22.5424 9.40442 22.5363 9.4021C23.1603 9.25421 23.7961 9.30825 24.5114 9.37848C24.5913 9.4135 24.5947 9.40536 24.5978 9.40844C24.668 9.43539 24.7286 9.47036 24.8247 9.54883C24.8666 9.5812 24.8539 9.58337 24.8534 9.57697C24.8933 9.62625 24.9406 9.67536 25.0376 9.74618C26.4922 10.5632 27.2323 11.8432 27.6855 13.3999C27.7635 13.5519 27.7765 13.6636 27.8462 13.8071C27.8847 13.8464 27.8725 13.8451 27.8753 13.8396C28.0116 14.0242 27.931 14.2451 27.9951 14.5059C28.0235 14.5624 28.0537 14.6175 28.0472 14.6483C28.2201 14.9896 28.0929 15.3322 28.1683 15.7227C28.194 15.7891 28.2237 15.8696 28.22 15.9124C28.4126 16.1981 28.2913 16.4763 28.2624 16.81C28.2244 16.9461 28.2272 17.012 28.2248 17.1269C28.2441 17.2221 28.2686 17.2681 28.2561 17.383C28.219 17.4518 28.2309 17.5179 28.2161 17.548C28.0769 17.7792 28.1743 18.013 28.0706 18.2782C28.1056 18.9356 27.8191 19.4323 27.5319 19.9945C27.4332 20.1344 27.4266 20.2389 27.376 20.3814C27.3512 20.4262 27.3367 20.4166 27.3445 20.4202C27.2997 20.4522 27.2543 20.4895 27.19 20.5713C27.164 20.607 27.1615 20.5932 27.1685 20.5922C27.1171 20.6343 27.0666 20.6853 26.9994 20.7919C26.55 21.5597 25.9629 22.0858 25.0987 22.3655C24.9572 22.4453 24.8573 22.4522 24.7171 22.492C24.6733 22.5148 24.6064 22.545 24.5699 22.5413C23.8568 22.6928 23.173 22.6741 22.4136 22.5786Z" fill="#402751"/>
<path d="M48.7682 19.1338C49.294 19.0879 49.6311 19.2841 49.9476 19.6668C50.1861 19.6986 50.1729 19.9479 50.3781 20.0219C50.4292 20.0529 50.4169 20.0563 50.4182 20.0501C50.5538 20.1896 50.6459 20.364 50.7556 20.5892C51.1024 21.1096 51.3458 21.606 51.3135 22.2703C51.5218 22.8864 51.3194 23.4535 51.4222 24.0783C51.4476 24.1505 51.4779 24.1983 51.4712 24.2258C51.4923 24.3066 51.52 24.36 51.5071 24.4939C51.4665 24.5745 51.4859 24.6078 51.4733 24.6224C51.3353 24.8482 51.4215 25.0835 51.3465 25.3614C51.279 27.5107 49.4295 29.8003 47.1224 30.5187C46.5665 30.7534 46.0537 30.5792 45.4808 30.5643C43.7048 30.2749 42.5527 28.8387 42.4256 26.7219C42.2463 26.3463 42.373 26.0084 42.3874 25.6116C42.4255 25.5089 42.4236 25.4789 42.4392 25.4074C42.5762 25.1157 42.4802 24.8471 42.5614 24.5373C42.6 24.4841 42.609 24.498 42.6024 24.503C42.6218 24.4813 42.6477 24.4547 42.7169 24.3928C42.681 23.96 42.6084 23.5646 43.1158 23.2975C43.1162 23.2081 43.097 23.1788 43.1081 23.1063C43.1384 23.0633 43.138 23.0798 43.1297 23.08C43.2051 23.0003 43.1977 22.8849 43.2716 22.7475C43.3075 22.7077 43.311 22.7199 43.3047 22.7207C43.353 22.6817 43.4012 22.6353 43.4695 22.5393C43.4961 22.4965 43.4729 22.465 43.4859 22.4504C43.4776 22.2414 43.632 22.1742 43.7991 22.0465C43.8882 21.3979 44.4643 21.2044 44.8413 20.7907C44.9425 20.7308 44.9875 20.6903 45.0597 20.6132C45.0873 20.5772 45.0875 20.5903 45.0809 20.5902C45.123 20.5545 45.1681 20.5149 45.237 20.4354C45.2644 20.3996 45.2647 20.4126 45.2582 20.4125C45.3005 20.3771 45.3453 20.3374 45.4136 20.2577C45.4403 20.2214 45.4412 20.234 45.435 20.2327C45.5158 20.1453 45.6321 20.1148 45.7726 20.0185C46.0651 19.8374 46.3244 19.7052 46.6356 19.5495C46.7258 19.4837 46.7662 19.4433 46.8324 19.3691C46.8564 19.3336 46.8619 19.3475 46.856 19.3429C47.103 19.1739 47.3898 19.31 47.7088 19.2057C47.7634 19.164 47.7534 19.1797 47.7451 19.1755C48.0432 18.9766 48.3772 19.1197 48.7682 19.1338Z" fill="#402751"/>
<path d="M9.12462 25.8113C9.0881 25.7593 9.05256 25.6864 9.05481 25.646C8.97841 25.5009 8.96783 25.3715 8.90179 25.1954C8.875 25.1382 8.8694 25.1304 8.87332 25.1276C8.85392 25.0652 8.8306 25.0054 8.84562 24.8575C8.88396 24.7693 8.86358 24.7333 8.8772 24.7177C9.00977 24.5006 8.95844 24.2816 8.93329 24.0185C8.91047 23.9694 8.87725 23.9113 8.88226 23.8782C8.8606 23.7958 8.83392 23.7465 8.8472 23.6233C8.88715 23.5493 8.87444 23.4887 8.88934 23.4616C9.03611 23.0634 8.92511 22.6767 9.01237 22.2381C9.04751 22.1756 9.05493 22.188 9.04881 22.1919C9.17421 22.083 9.13162 21.923 9.19025 21.7374C9.22522 21.694 9.22123 21.6506 9.24274 21.6473C9.34631 21.5137 9.30664 21.3618 9.3732 21.1808C9.40792 21.139 9.40493 21.127 9.4109 21.1254C9.49249 21.0435 9.49659 20.9358 9.55875 20.7975C9.59136 20.757 9.57864 20.6883 9.59002 20.6552C9.62936 20.5674 9.66431 20.5175 9.73329 20.4355C9.76124 20.3991 9.765 20.4135 9.75786 20.4155C9.83785 20.3442 9.85171 20.2378 9.90441 20.0914C9.93098 20.0458 9.93991 20.0578 9.93341 20.0541C10.6305 19.6553 11.3118 19.2061 12.2147 19.1173C12.3704 19.0795 12.4611 19.0774 12.603 19.1371C12.6539 19.1833 12.6818 19.1566 12.6963 19.1693C12.7526 19.1586 12.7943 19.1352 12.9037 19.1357C12.9713 19.1594 12.9606 19.1696 12.9624 19.1624C13.0306 19.2505 13.1389 19.2594 13.2821 19.3157C13.3267 19.3434 13.3147 19.3467 13.3141 19.3405C13.3821 19.4203 13.4844 19.4372 13.6126 19.5054C15.8614 20.4124 16.9484 22.2479 17.7452 24.396C17.8677 24.6002 17.8236 24.7794 17.9013 24.9853C17.9452 25.0304 17.9328 25.0276 17.9359 25.022C17.9551 25.061 17.9713 25.1055 17.9521 25.2116C17.9168 25.2732 17.9331 25.342 17.9139 25.3716C17.8853 25.4333 17.8759 25.4653 17.8977 25.5365C17.9288 25.5757 17.917 25.5604 17.9237 25.5534C18.0817 25.859 18.0346 26.1871 17.9628 26.5838C17.9499 26.9798 17.9918 27.3075 17.7417 27.6571C17.6537 28.0054 17.6236 28.2999 17.4117 28.5996C16.8075 29.6315 16.0722 30.3945 14.8017 30.5361C14.3693 30.7069 13.9896 30.618 13.5447 30.5704C12.6904 30.7552 12.2307 30.1213 11.6634 29.8142C10.6511 29.2662 10.0005 28.3779 9.58415 27.2522C9.413 26.7569 9.3342 26.2949 9.12462 25.8113Z" fill="#402751"/>
<path d="M42.7202 24.3647C42.7214 24.3906 42.6794 24.4185 42.6149 24.4747C42.61 24.4539 42.6382 24.4085 42.7202 24.3647Z" fill="#402751"/>
<path d="M41.5023 17.347C41.4901 17.3465 41.4869 17.3147 41.4934 17.2669C41.4925 17.2501 41.5009 17.3146 41.5023 17.347Z" fill="#402751"/>
<path d="M17.9219 25.533C17.9333 25.532 17.9189 25.489 17.8938 25.4243C17.8994 25.431 17.9037 25.4605 17.9219 25.533Z" fill="#402751"/>
<path d="M33.9652 40.7993C33.4459 41.3677 32.9252 41.8902 32.388 42.4691C32.2229 42.6348 32.0659 42.7309 31.8607 42.8544C31.8136 42.8834 31.8255 42.8888 31.8239 42.8825C31.788 42.925 31.7489 42.9698 31.6704 43.0385C31.6351 43.0658 31.648 43.0666 31.6479 43.0602C31.6117 43.1019 31.5718 43.1469 31.493 43.2168C31.4577 43.2449 31.4724 43.2459 31.4728 43.2385C31.3935 43.3105 31.2698 43.2794 31.1443 43.3801C31.1038 43.4146 31.1155 43.4216 31.1137 43.4151C30.6462 43.8393 30.1024 43.8284 29.4616 43.6687C29.3221 43.6076 29.2566 43.5652 29.1668 43.469C29.1171 43.3845 29.0918 43.3537 29.0277 43.2774C28.989 43.2318 28.9886 43.2455 28.9954 43.2455C28.9547 43.2085 28.9098 43.1685 28.8406 43.0891C28.8131 43.0533 28.8126 43.0662 28.819 43.0656C28.777 43.0299 28.7319 42.9908 28.6638 42.9115C28.6368 42.8757 28.6356 42.8884 28.6418 42.8872C28.4774 42.838 28.5197 42.5325 28.2293 42.559C27.6505 41.9935 27.1157 41.4452 26.5367 40.8611C26.2953 40.7922 26.5617 40.3883 26.1639 40.4514C26.0655 40.3182 26.0164 40.2095 25.9262 40.0781C25.7579 40.0089 25.7077 39.9061 25.653 39.7327C25.62 39.6827 25.6172 39.6949 25.6235 39.6952C25.5408 39.6243 25.5301 39.5173 25.4754 39.3732C25.4484 39.3285 25.4391 39.3386 25.4459 39.3377C25.3959 39.2966 25.3469 39.2483 25.2792 39.1479C25.2537 39.1027 25.2746 39.0564 25.2608 39.035C25.1726 38.9058 25.1757 38.7712 25.1007 38.5962C25.0774 38.537 25.0799 38.5404 25.0781 38.5415C25.0795 38.4497 25.1354 38.3317 24.9349 38.2807C24.6132 37.1205 24.7061 36.0769 25.4197 35.1042C25.7376 34.6709 26.097 34.4348 26.6506 34.3091C26.9055 34.0527 26.7686 34.2054 27.4949 34.1819C27.5669 34.2112 27.7033 34.1895 27.7449 34.1932C27.9064 34.35 28.0129 34.2792 28.215 34.3091C28.3023 34.339 28.3343 34.3504 28.4171 34.3631C28.4897 34.3935 28.5114 34.4225 28.5758 34.4852C28.7325 34.6106 28.8419 34.7088 28.9614 34.7928C30.3455 35.7653 30.3459 35.7647 31.7911 34.5465C32.1414 34.4447 32.0033 34.8212 32.2076 34.8642C32.0092 34.7585 32.1182 34.5948 32.1474 34.4138C32.393 34.354 32.6162 34.4194 32.8366 34.2024C33.1406 34.057 33.4013 34.118 33.7182 34.1659C34.8595 34.6688 35.4763 35.477 35.694 36.6641C35.8518 36.8779 35.8151 37.0781 35.7693 37.3386C35.7293 37.4017 35.7418 37.3885 35.7359 37.3816C35.5164 37.6652 35.7755 38.0512 35.4856 38.3749C35.3152 38.6662 35.1951 38.9192 35.0541 39.2295C34.9012 39.4664 34.7561 39.6373 34.6466 39.8952C34.6053 40.0157 34.5792 40.0834 34.5136 40.1894C34.4759 40.2284 34.4894 40.2282 34.4891 40.2214C34.4521 40.2621 34.412 40.3066 34.3329 40.3754C34.2971 40.4027 34.3098 40.4035 34.3088 40.3973C34.2757 40.441 34.2372 40.4855 34.1562 40.5501C34.1203 40.5759 34.1332 40.5811 34.1302 40.5749C34.088 40.6437 33.9527 40.6339 33.9652 40.7993Z" fill="#C6B8E8"/>
</g>
<defs>
<clipPath id="clip0_350_1645">
<rect width="60" height="60" fill="white"/>
</clipPath>
</defs>
</svg>
