<svg width="188" height="60" viewBox="0 0 188 60" fill="none" xmlns="http://www.w3.org/2000/svg">
<g clip-path="url(#clip0_368_34)">
<path d="M31.9467 27.129C32.0247 27.1707 32.0671 27.147 32.0866 27.1615C32.2535 27.2817 32.4328 27.2305 32.6445 27.3106C32.8754 27.4496 33.0523 27.5597 33.3347 27.5364C33.9073 27.6273 34.397 27.7806 34.9296 28.0085C34.9838 28.0434 34.9702 28.0461 34.9689 28.0393C35.0374 28.1134 35.1294 28.1382 35.2812 28.1388C35.3629 28.1479 35.3951 28.1552 35.4707 28.1868C35.514 28.2109 35.5045 28.2219 35.5052 28.2147C35.5731 28.3009 35.6796 28.3127 35.8247 28.3643C35.8702 28.3902 35.8595 28.3989 35.8603 28.392C35.9286 28.4791 36.036 28.4901 36.1812 28.5433C36.2267 28.5695 36.215 28.5766 36.2166 28.57C36.2513 28.6136 36.2898 28.6594 36.3687 28.729C36.4038 28.7572 36.3881 28.7592 36.3868 28.7514C36.4719 28.8536 36.611 28.8453 36.7847 28.9147C36.845 28.935 36.8383 28.9415 36.8345 28.9388C36.9169 28.9141 36.9846 28.9382 37.0733 29.06C37.1159 29.1037 37.1035 29.1093 37.1053 29.1027C37.1398 29.1465 37.1777 29.1925 37.257 29.2609C37.2925 29.2882 37.2778 29.2895 37.2772 29.2821C37.3166 29.3277 37.3623 29.3749 37.4545 29.4449C38.3614 29.902 39.0989 30.5063 39.835 31.2084C39.9375 31.2739 39.9968 31.3054 40.0904 31.3797C40.1319 31.4093 40.1196 31.4185 40.1232 31.4117C40.1555 31.457 40.1927 31.502 40.2745 31.5652C40.3106 31.5903 40.2983 31.5947 40.3001 31.5885C40.3346 31.6319 40.3727 31.6771 40.4521 31.7438C40.4881 31.7698 40.4758 31.7723 40.477 31.7661C40.5115 31.8093 40.5501 31.8542 40.6296 31.9211C40.6658 31.9471 40.6534 31.9497 40.6548 31.9435C40.6895 31.9867 40.7274 32.032 40.8071 32.0986C40.8433 32.1245 40.8309 32.1272 40.8322 32.121C40.8666 32.1643 40.9052 32.2093 40.9846 32.2762C41.0208 32.3023 41.0083 32.3046 41.0102 32.2985C41.0969 32.4014 41.197 32.4957 41.3357 32.6239C41.3756 32.6566 41.3635 32.6599 41.3638 32.6536C41.3985 32.6964 41.4374 32.7415 41.5173 32.8088C41.5537 32.8349 41.5412 32.8371 41.5426 32.8309C41.5767 32.8743 41.615 32.9191 41.6947 32.9851C41.7312 33.0104 41.7182 33.0153 41.7215 33.0092C41.7649 33.0589 41.8058 33.1139 41.8663 33.2163C42.375 33.6346 42.7444 34.1121 43.1053 34.6683C43.2965 34.8645 43.3318 35.0903 43.5067 35.3002C44.0905 35.7825 44.2336 36.4966 44.7261 37.0455C44.8343 37.1952 44.919 37.2835 45.0558 37.4059C45.1032 37.4446 45.0886 37.4553 45.0959 37.4499C45.1938 37.5725 45.1682 37.7225 45.2034 37.9151C45.3983 38.221 45.5727 38.4765 45.7648 38.7876C45.9104 39.0406 46.0563 39.2296 46.0999 39.5303C46.6417 40.4005 46.8235 41.3317 47.0375 42.3214C47.2384 42.7627 47.0714 43.1658 47.1652 43.6175C47.1943 43.6856 47.2214 43.744 47.212 43.7748C47.2531 43.8667 47.2868 43.9357 47.299 44.0718C47.3242 44.2138 47.0825 44.2461 47.2774 44.4108C47.3135 44.541 47.308 44.6178 47.2452 44.7344C47.2026 44.7751 47.2226 44.8334 47.2099 44.8615C47.0514 45.2175 47.1789 45.5697 47.0721 45.9687C46.9843 47.9643 44.823 50.644 42.5015 50.7778C41.8896 50.9094 41.3438 50.9056 40.7221 50.808C40.6162 50.7697 40.584 50.7693 40.5033 50.7717C40.4254 50.7917 40.3958 50.809 40.3236 50.7975C40.281 50.7688 40.2963 50.767 40.2974 50.7746C40.2251 50.6929 40.1174 50.6804 39.9721 50.6243C39.1388 50.4619 38.5697 49.9211 37.9297 49.5123C37.5715 49.2834 37.2407 49.0017 36.771 48.8849C36.3163 48.6188 35.8651 48.7619 35.3753 48.7872C35.326 48.8335 35.3276 48.8205 35.3329 48.8244C35.2921 48.8434 35.246 48.8585 35.1357 48.8394C33.7085 49.3247 32.674 50.4429 31.2675 50.891C31.0598 50.9572 30.87 50.9358 30.5983 50.9587C30.3455 51.0808 30.148 51.0237 29.8911 50.9926C28.815 51.0556 28.0545 50.4794 27.312 49.9467C26.8141 49.5894 26.2879 49.2878 25.7518 49.0236C24.4994 48.4063 23.3663 48.8446 22.2787 49.5409C21.5182 50.0278 20.8591 50.7254 19.8011 50.7633C19.3619 50.9558 18.9372 50.7936 18.4835 50.9385C15.9506 50.6176 14.2717 49.3413 13.5258 46.8742C13.4701 46.3714 13.3288 45.9545 13.1634 45.4909C13.1201 45.4492 13.1346 45.4468 13.1291 45.4518C13.098 45.4088 13.0724 45.3609 13.0963 45.2483C13.1458 45.1835 13.1246 45.1467 13.1387 45.1308C13.2694 44.9137 13.2188 44.6955 13.1938 44.4334C13.1711 44.3845 13.1373 44.3259 13.1431 44.2925C13.1217 44.21 13.0946 44.1609 13.1082 44.038C13.149 43.9642 13.1367 43.8984 13.1533 43.8693C13.2993 43.3509 13.1276 42.8173 13.3956 42.2863C13.3661 41.979 13.4116 41.7476 13.5326 41.47C13.8639 40.0088 14.4192 38.7079 15.2819 37.4709C15.3558 37.3722 15.3913 37.3259 15.4339 37.232C15.4489 37.1906 15.443 37.1893 15.4452 37.1873C15.4285 36.9725 15.6933 36.9843 15.7706 36.7675C16.1726 35.9514 16.7063 35.3028 17.2875 34.633C17.5772 34.4422 17.5766 34.1464 17.773 33.9141C19.3434 31.8399 21.4041 30.4075 23.5319 28.9664C23.7514 28.7686 23.9618 28.6922 24.2427 28.6329C25.2987 28.0157 26.3724 27.5953 27.5729 27.3349C27.8382 27.1991 28.0712 27.271 28.3477 27.2112C28.4074 27.1812 28.4697 27.1513 28.5036 27.1579C29.6438 26.9574 30.7582 27.1068 31.9467 27.129Z" fill="#402751"/>
<path d="M33.0502 20.4077C32.6333 19.7778 32.2582 19.1916 32.3029 18.3754C32.1647 18.1142 32.132 17.8933 32.1345 17.5951C32.1311 17.4115 32.127 17.2958 32.1291 17.1223C31.9514 16.6979 32.0778 16.3087 32.0912 15.8571C32.1295 15.7838 32.1373 15.8002 32.1296 15.8048C32.2047 15.7272 32.2238 15.6279 32.1732 15.4705C32.1469 15.424 32.116 15.3894 32.1279 15.3694C32.1177 15.3054 32.0957 15.2613 32.0955 15.1466C32.1172 15.0759 32.129 15.0864 32.1215 15.0841C32.2894 14.8718 32.2684 14.5882 32.3909 14.2901C32.3821 14.0458 32.3549 13.8667 32.4631 13.6334C32.4852 13.5697 32.4913 13.5765 32.4883 13.5799C32.4641 13.4962 32.4893 13.4282 32.6137 13.3408C32.6589 13.299 32.6622 13.3133 32.655 13.3148C32.7966 13.198 32.7341 13.0217 32.7995 12.8202C32.8294 12.7681 32.8371 12.7789 32.8305 12.7784C32.9178 12.7098 32.9284 12.6018 32.9835 12.457C33.0107 12.4119 33.0145 12.424 33.0082 12.4245C33.094 12.3555 33.106 12.248 33.16 12.1023C33.1869 12.0569 33.1918 12.0687 33.1854 12.0688C33.272 12.0002 33.2835 11.8927 33.3374 11.7472C33.3641 11.7018 33.37 11.7135 33.3636 11.7123C33.4078 11.6775 33.453 11.6378 33.5198 11.5554C33.6643 11.3076 33.7807 11.0954 33.9445 10.8594C34.2424 10.683 34.3545 10.4136 34.5676 10.1505C34.6054 10.1034 34.6137 10.1158 34.6069 10.1128C34.6519 10.0816 34.6967 10.0446 34.7579 9.9623C34.7816 9.92557 34.793 9.93937 34.786 9.93382C34.8392 9.88576 34.899 9.84271 35.0106 9.78094C35.0629 9.76285 35.0581 9.76879 35.0547 9.76701C35.1999 9.70042 35.354 9.66317 35.5745 9.65298C35.7273 9.5745 35.8229 9.51382 35.9708 9.43052C36.1597 9.28018 36.3402 9.34252 36.5509 9.26925C36.6058 9.23991 36.6331 9.21469 36.647 9.22699C36.719 9.21356 36.7772 9.18782 36.9226 9.20029C37.01 9.23849 37.0119 9.23047 37.0128 9.23451C37.0586 9.21702 37.1035 9.19549 37.2198 9.19631C37.2912 9.21866 37.2805 9.22675 37.2805 9.22005C37.3949 9.36819 37.5726 9.30013 37.772 9.36825C37.8237 9.39856 37.8125 9.40448 37.8122 9.39812C37.8812 9.48468 37.9894 9.49619 38.1345 9.55221C38.1795 9.58008 38.167 9.58293 38.166 9.57659C38.2357 9.66103 38.3429 9.67385 38.489 9.72744C38.5345 9.75423 38.5227 9.76094 38.525 9.75453C38.5591 9.79736 38.5948 9.8436 38.6553 9.92538C39.1025 10.1469 39.3927 10.4953 39.7328 10.8624C39.8305 11.2519 40.2114 11.4317 40.2655 11.8522C40.3073 11.9005 40.2919 11.8952 40.294 11.8873C40.3323 11.9272 40.3721 11.9717 40.452 12.039C40.4885 12.065 40.4745 12.0689 40.4797 12.0638C40.5505 12.1498 40.5593 12.2601 40.6125 12.412C40.9594 12.5905 40.7566 12.9618 40.9734 13.203C41.0837 13.3621 41.1544 13.4776 41.1773 13.6859C41.1773 13.7544 41.1826 13.7589 41.1791 13.758C41.3482 14.3887 41.4867 15.0253 41.503 15.7477C41.547 15.8092 41.5317 15.8005 41.5353 15.7924C41.7237 16.1491 41.6253 16.5333 41.5759 16.9831C41.535 17.0889 41.5342 17.1229 41.5126 17.2033C41.4918 17.2498 41.4633 17.3164 41.4814 17.3478C41.4996 17.3792 41.5399 17.4418 41.533 17.4784C41.553 17.5673 41.5798 17.6196 41.5679 17.7511C41.5291 17.8303 41.555 17.8642 41.5408 17.8802C41.4153 18.049 41.4695 18.2374 41.384 18.4595C41.3499 18.5159 41.3722 18.5462 41.3625 18.5623C41.3728 18.6913 41.3126 18.7847 41.2646 18.9362C41.2095 19.0871 41.161 19.1821 41.0507 19.3006C40.8201 20.7501 39.4824 22.1689 37.9095 22.5478C37.7543 22.612 37.6422 22.6284 37.4962 22.698C37.4569 22.7376 37.4577 22.7249 37.4631 22.7281C37.4235 22.7475 37.3784 22.7637 37.2703 22.7452C37.2073 22.7105 37.1497 22.7274 37.1255 22.7097C36.8312 22.693 36.5631 22.6672 36.2275 22.6395C35.976 22.6463 35.7935 22.6298 35.5499 22.5864C35.4892 22.5535 35.5008 22.5475 35.5001 22.5539C35.4634 22.507 35.4204 22.46 35.331 22.3919C34.5215 22.1816 33.9112 21.7866 33.5448 20.9913C33.3401 20.8117 33.1629 20.678 33.0502 20.4077Z" fill="#402751"/>
<path d="M22.4137 22.5781C20.4045 21.9417 19.5066 20.4581 18.9982 18.5764C18.7816 18.1511 18.9494 17.7573 18.8797 17.3141C18.8461 17.2157 18.8333 17.1861 18.8218 17.1083C18.7934 17.0338 18.7637 17.0077 18.7378 16.9224C18.8292 16.6749 18.7916 16.4784 18.7693 16.2254C18.7572 16.1281 18.7545 16.0889 18.7873 16.0027C18.8229 15.9557 18.8073 15.9009 18.819 15.8749C18.8033 15.7992 18.776 15.7494 18.7883 15.6242C18.828 15.5488 18.8058 15.5076 18.8202 15.4892C18.8802 15.3953 18.9029 15.3132 18.908 15.1603C19.0173 14.7187 19.0843 14.3358 19.1299 13.8881C19.1644 13.8324 19.1687 13.8446 19.1625 13.8463C19.3066 13.7301 19.2424 13.5528 19.3104 13.3519C19.3414 13.3002 19.3461 13.312 19.3399 13.3134C19.4413 13.2354 19.4377 13.1046 19.5084 12.9416C19.5355 12.8878 19.5112 12.8493 19.5242 12.8307C19.5975 12.7192 19.6155 12.6122 19.6658 12.4601C19.6927 12.4132 19.702 12.4234 19.6952 12.4227C19.7462 12.3819 19.797 12.3343 19.8665 12.233C19.8935 12.1879 19.8726 12.155 19.886 12.1409C19.9418 12.0214 19.9712 11.9123 20.02 11.7517C20.0484 11.7027 20.0572 11.7137 20.0504 11.712C20.0934 11.677 20.1392 11.6389 20.2079 11.5599C20.2355 11.5245 20.2379 11.5391 20.2307 11.5404C20.3738 11.3944 20.4081 11.1769 20.5691 10.9641C20.9122 10.601 21.226 10.2921 21.5926 9.96201C21.6901 9.9009 21.7345 9.86048 21.8048 9.78314C21.8312 9.74669 21.8316 9.75951 21.8254 9.75807C21.8765 9.69905 21.9301 9.63812 22.0409 9.58355C22.1013 9.59274 22.0983 9.58979 22.0962 9.5895C22.212 9.54481 22.3295 9.49927 22.4999 9.43531C22.5449 9.39126 22.5425 9.40393 22.5365 9.40161C23.1604 9.25373 23.7963 9.30776 24.5115 9.37799C24.5914 9.41301 24.5948 9.40487 24.5979 9.40795C24.6681 9.4349 24.7287 9.46988 24.8248 9.54834C24.8667 9.58071 24.854 9.58288 24.8535 9.57649C24.8934 9.62576 24.9407 9.67487 25.0377 9.74569C26.4923 10.5627 27.2324 11.8427 27.6856 13.3994C27.7637 13.5514 27.7766 13.6631 27.8463 13.8066C27.8848 13.8459 27.8726 13.8446 27.8754 13.8391C28.0117 14.0237 27.9312 14.2446 27.9952 14.5054C28.0236 14.5619 28.0538 14.617 28.0473 14.6478C28.2202 14.9891 28.093 15.3317 28.1685 15.7222C28.1941 15.7887 28.2238 15.8691 28.2201 15.9119C28.4128 16.1976 28.2914 16.4758 28.2625 16.8095C28.2245 16.9457 28.2273 17.0115 28.2249 17.1265C28.2443 17.2216 28.2688 17.2676 28.2562 17.3825C28.2191 17.4513 28.231 17.5174 28.2162 17.5475C28.077 17.7787 28.1744 18.0125 28.0708 18.2777C28.1057 18.9351 27.8192 19.4318 27.5321 19.994C27.4333 20.1339 27.4268 20.2384 27.3761 20.3809C27.3513 20.4257 27.3369 20.4161 27.3446 20.4197C27.2998 20.4518 27.2544 20.489 27.1901 20.5708C27.1641 20.6065 27.1617 20.5927 27.1686 20.5917C27.1172 20.6338 27.0668 20.6848 26.9995 20.7914C26.5502 21.5592 25.963 22.0853 25.0988 22.365C24.9574 22.4448 24.8574 22.4517 24.7172 22.4915C24.6735 22.5143 24.6065 22.5446 24.57 22.5408C23.8569 22.6923 23.1731 22.6736 22.4137 22.5781Z" fill="#402751"/>
<path d="M48.7682 19.1343C49.294 19.0884 49.6311 19.2846 49.9476 19.6673C50.1861 19.6991 50.1729 19.9484 50.3781 20.0223C50.4292 20.0534 50.4169 20.0568 50.4182 20.0506C50.5538 20.1901 50.6459 20.3644 50.7556 20.5897C51.1024 21.11 51.3458 21.6065 51.3135 22.2708C51.5218 22.8869 51.3194 23.454 51.4222 24.0788C51.4476 24.151 51.4779 24.1988 51.4712 24.2263C51.4923 24.3071 51.52 24.3605 51.5071 24.4944C51.4665 24.575 51.4859 24.6083 51.4733 24.6229C51.3353 24.8487 51.4215 25.084 51.3465 25.3619C51.279 27.5112 49.4295 29.8008 47.1224 30.5192C46.5665 30.7539 46.0537 30.5797 45.4808 30.5648C43.7048 30.2754 42.5527 28.8392 42.4256 26.7224C42.2463 26.3468 42.373 26.0089 42.3874 25.6121C42.4255 25.5094 42.4236 25.4794 42.4392 25.4079C42.5762 25.1162 42.4802 24.8476 42.5614 24.5377C42.6 24.4846 42.609 24.4984 42.6024 24.5034C42.6218 24.4818 42.6477 24.4552 42.7169 24.3933C42.681 23.9605 42.6084 23.5651 43.1158 23.298C43.1162 23.2086 43.097 23.1792 43.1081 23.1068C43.1384 23.0638 43.138 23.0803 43.1297 23.0804C43.2051 23.0008 43.1977 22.8854 43.2716 22.748C43.3075 22.7082 43.311 22.7204 43.3047 22.7212C43.353 22.6822 43.4012 22.6358 43.4695 22.5398C43.4961 22.497 43.4729 22.4655 43.4859 22.4509C43.4776 22.2419 43.632 22.1747 43.7991 22.047C43.8882 21.3984 44.4643 21.2049 44.8413 20.7912C44.9425 20.7313 44.9875 20.6908 45.0597 20.6137C45.0873 20.5777 45.0875 20.5908 45.0809 20.5907C45.123 20.555 45.1681 20.5154 45.237 20.4359C45.2644 20.4001 45.2647 20.4131 45.2582 20.413C45.3005 20.3776 45.3453 20.3379 45.4136 20.2582C45.4403 20.2219 45.4412 20.2345 45.435 20.2332C45.5158 20.1458 45.6321 20.1152 45.7726 20.0189C46.0651 19.8379 46.3244 19.7057 46.6356 19.55C46.7258 19.4842 46.7662 19.4438 46.8324 19.3696C46.8564 19.3341 46.8619 19.348 46.856 19.3434C47.103 19.1744 47.3898 19.3105 47.7088 19.2062C47.7634 19.1645 47.7534 19.1802 47.7451 19.176C48.0432 18.977 48.3772 19.1201 48.7682 19.1343Z" fill="#402751"/>
<path d="M9.12462 25.8118C9.0881 25.7597 9.05256 25.6869 9.05481 25.6465C8.97841 25.5014 8.96783 25.372 8.90179 25.1958C8.875 25.1386 8.8694 25.1309 8.87332 25.1281C8.85392 25.0657 8.8306 25.0059 8.84562 24.858C8.88396 24.7698 8.86358 24.7338 8.8772 24.7182C9.00977 24.5011 8.95844 24.2821 8.93329 24.019C8.91047 23.9699 8.87725 23.9117 8.88226 23.8786C8.8606 23.7963 8.83392 23.747 8.8472 23.6237C8.88715 23.5498 8.87444 23.4892 8.88934 23.4621C9.03611 23.0639 8.92511 22.6772 9.01237 22.2386C9.04751 22.1761 9.05493 22.1885 9.04881 22.1924C9.17421 22.0835 9.13162 21.9235 9.19025 21.7379C9.22522 21.6944 9.22123 21.6511 9.24274 21.6478C9.34631 21.5142 9.30664 21.3623 9.3732 21.1813C9.40792 21.1395 9.40493 21.1275 9.4109 21.1259C9.49249 21.0439 9.49659 20.9363 9.55875 20.798C9.59136 20.7575 9.57864 20.6888 9.59002 20.6557C9.62936 20.5679 9.66431 20.518 9.73329 20.436C9.76124 20.3996 9.765 20.414 9.75786 20.416C9.83785 20.3447 9.85171 20.2383 9.90441 20.0919C9.93098 20.0463 9.93991 20.0583 9.93341 20.0546C10.6305 19.6558 11.3118 19.2066 12.2147 19.1177C12.3704 19.08 12.4611 19.0779 12.603 19.1376C12.6539 19.1838 12.6818 19.1571 12.6963 19.1697C12.7526 19.1591 12.7943 19.1357 12.9037 19.1361C12.9713 19.1599 12.9606 19.17 12.9624 19.1629C13.0306 19.251 13.1389 19.2599 13.2821 19.3162C13.3267 19.3439 13.3147 19.3472 13.3141 19.341C13.3821 19.4208 13.4844 19.4377 13.6126 19.5059C15.8614 20.4129 16.9484 22.2484 17.7452 24.3965C17.8677 24.6007 17.8236 24.7799 17.9013 24.9858C17.9452 25.0309 17.9328 25.0281 17.9359 25.0225C17.9551 25.0614 17.9713 25.106 17.9521 25.2121C17.9168 25.2737 17.9331 25.3425 17.9139 25.3721C17.8853 25.4337 17.8759 25.4658 17.8977 25.537C17.9288 25.5762 17.917 25.5609 17.9237 25.5539C18.0817 25.8595 18.0346 26.1876 17.9628 26.5843C17.9499 26.9803 17.9918 27.308 17.7417 27.6575C17.6537 28.0059 17.6236 28.3004 17.4117 28.6001C16.8075 29.6319 16.0722 30.395 14.8017 30.5366C14.3693 30.7074 13.9896 30.6184 13.5447 30.5709C12.6904 30.7556 12.2307 30.1218 11.6634 29.8147C10.6511 29.2667 10.0005 28.3783 9.58415 27.2527C9.413 26.7574 9.3342 26.2954 9.12462 25.8118Z" fill="#402751"/>
<path d="M42.7201 24.3643C42.7213 24.3901 42.6793 24.418 42.6148 24.4742C42.6099 24.4534 42.6381 24.408 42.7201 24.3643Z" fill="#402751"/>
<path d="M41.5024 17.3475C41.4902 17.347 41.4871 17.3152 41.4935 17.2674C41.4926 17.2506 41.5011 17.3151 41.5024 17.3475Z" fill="#402751"/>
<path d="M17.9217 25.5325C17.933 25.5315 17.9186 25.4885 17.8936 25.4238C17.8991 25.4305 17.9034 25.46 17.9217 25.5325Z" fill="#402751"/>
<path d="M33.9652 40.7993C33.4459 41.3677 32.9252 41.8902 32.388 42.4691C32.2229 42.6348 32.0659 42.7309 31.8607 42.8544C31.8136 42.8834 31.8255 42.8888 31.8239 42.8825C31.788 42.925 31.7489 42.9698 31.6704 43.0385C31.6351 43.0658 31.648 43.0666 31.6479 43.0602C31.6117 43.1019 31.5718 43.1469 31.493 43.2168C31.4577 43.2449 31.4724 43.2459 31.4728 43.2385C31.3935 43.3105 31.2698 43.2794 31.1443 43.3801C31.1038 43.4146 31.1155 43.4216 31.1137 43.4151C30.6462 43.8393 30.1024 43.8284 29.4616 43.6687C29.3221 43.6076 29.2566 43.5652 29.1668 43.469C29.1171 43.3845 29.0918 43.3537 29.0277 43.2774C28.989 43.2318 28.9886 43.2455 28.9954 43.2455C28.9547 43.2085 28.9098 43.1685 28.8406 43.0891C28.8131 43.0533 28.8126 43.0662 28.819 43.0656C28.777 43.0299 28.7319 42.9908 28.6638 42.9115C28.6368 42.8757 28.6356 42.8884 28.6418 42.8872C28.4774 42.838 28.5197 42.5325 28.2293 42.559C27.6505 41.9935 27.1157 41.4452 26.5367 40.8611C26.2953 40.7922 26.5617 40.3883 26.1639 40.4514C26.0655 40.3182 26.0164 40.2095 25.9262 40.0781C25.7579 40.0089 25.7077 39.9061 25.653 39.7327C25.62 39.6827 25.6172 39.6949 25.6235 39.6952C25.5408 39.6243 25.5301 39.5173 25.4754 39.3732C25.4484 39.3285 25.4391 39.3386 25.4459 39.3377C25.3959 39.2966 25.3469 39.2483 25.2792 39.1479C25.2537 39.1027 25.2746 39.0564 25.2608 39.035C25.1726 38.9058 25.1757 38.7712 25.1007 38.5962C25.0774 38.537 25.0799 38.5404 25.0781 38.5415C25.0795 38.4497 25.1354 38.3317 24.9349 38.2807C24.6132 37.1205 24.7061 36.0769 25.4197 35.1042C25.7376 34.6709 26.097 34.4348 26.6506 34.3091C26.9055 34.0527 26.7686 34.2054 27.4949 34.1819C27.5669 34.2112 27.7033 34.1895 27.7449 34.1932C27.9064 34.35 28.0129 34.2792 28.215 34.3091C28.3023 34.339 28.3343 34.3504 28.4171 34.3631C28.4897 34.3935 28.5114 34.4225 28.5758 34.4852C28.7325 34.6106 28.8419 34.7088 28.9614 34.7928C30.3455 35.7653 30.3459 35.7647 31.7911 34.5465C32.1414 34.4447 32.0033 34.8212 32.2076 34.8642C32.0092 34.7585 32.1182 34.5948 32.1474 34.4138C32.393 34.354 32.6162 34.4194 32.8366 34.2024C33.1406 34.057 33.4013 34.118 33.7182 34.1659C34.8595 34.6688 35.4763 35.477 35.694 36.6641C35.8518 36.8779 35.8151 37.0781 35.7693 37.3386C35.7293 37.4017 35.7418 37.3885 35.7359 37.3816C35.5164 37.6652 35.7755 38.0512 35.4856 38.3749C35.3152 38.6662 35.1951 38.9192 35.0541 39.2295C34.9012 39.4664 34.7561 39.6373 34.6466 39.8952C34.6053 40.0157 34.5792 40.0834 34.5136 40.1894C34.4759 40.2284 34.4894 40.2282 34.4891 40.2214C34.4521 40.2621 34.412 40.3066 34.3329 40.3754C34.2971 40.4027 34.3098 40.4035 34.3088 40.3973C34.2757 40.441 34.2372 40.4855 34.1562 40.5501C34.1203 40.5759 34.1332 40.5811 34.1302 40.5749C34.088 40.6437 33.9527 40.6339 33.9652 40.7993Z" fill="#C6B8E8"/>
</g>
<path d="M67.1387 35.6387H68.623L67.2363 32.3379H62.8223L61.5039 35.6973H64.0234V36H58.8965V35.6582H61.1426L64.7754 26.5176L66.6992 21.6836L72.9199 35.6387H74.7168V36H67.1387V35.6387ZM62.959 31.9766H67.0801L64.9609 26.9766L62.959 31.9766ZM80.5859 35.2969C80.5599 35.4271 80.4948 35.5508 80.3906 35.668C80.293 35.7786 80.1725 35.8861 80.0293 35.9902C79.8861 36.0879 79.7298 36.1758 79.5605 36.2539C79.3978 36.332 79.2383 36.3971 79.082 36.4492C78.9323 36.5013 78.7988 36.5371 78.6816 36.5566C78.571 36.5827 78.4928 36.5892 78.4473 36.5762C77.9395 36.5762 77.487 36.5111 77.0898 36.3809C76.6992 36.2507 76.3542 36.0781 76.0547 35.8633C75.7617 35.6419 75.5143 35.388 75.3125 35.1016C75.1107 34.8086 74.9479 34.5026 74.8242 34.1836C74.7005 33.8581 74.6094 33.526 74.5508 33.1875C74.4987 32.849 74.4727 32.5267 74.4727 32.2207C74.4727 32.0059 74.502 31.7422 74.5605 31.4297C74.6191 31.1172 74.7103 30.7917 74.834 30.4531C74.9642 30.1146 75.1302 29.7793 75.332 29.4473C75.5339 29.1087 75.778 28.806 76.0645 28.5391C76.3509 28.2721 76.6829 28.0573 77.0605 27.8945C77.4382 27.7253 77.8678 27.6406 78.3496 27.6406C78.584 27.6406 78.8118 27.6797 79.0332 27.7578C79.2611 27.8294 79.4759 27.9303 79.6777 28.0605C79.8796 28.1842 80.0684 28.334 80.2441 28.5098C80.4199 28.679 80.5762 28.8613 80.7129 29.0566L80.8301 23.1777H78.7109V22.9043H83.7109L83.4668 35.8438H85.4492V36.1953H80.5664L80.5859 35.2969ZM79.0723 36.0195C79.222 36.0195 79.375 35.9772 79.5312 35.8926C79.694 35.8079 79.847 35.6842 79.9902 35.5215C80.1335 35.3587 80.2572 35.1569 80.3613 34.916C80.472 34.6686 80.5534 34.3887 80.6055 34.0762L80.7129 29.7988C80.6087 29.5514 80.4883 29.3366 80.3516 29.1543C80.2214 28.972 80.0846 28.8158 79.9414 28.6855C79.7982 28.5553 79.6517 28.4479 79.502 28.3633C79.3587 28.2786 79.222 28.2103 79.0918 28.1582C78.9421 28.1582 78.776 28.2201 78.5938 28.3438C78.4115 28.4609 78.2422 28.6823 78.0859 29.0078C77.9297 29.3333 77.7962 29.7826 77.6855 30.3555C77.5814 30.9284 77.5293 31.6706 77.5293 32.582C77.5293 33.2396 77.5716 33.7897 77.6562 34.2324C77.7474 34.6751 77.8646 35.0299 78.0078 35.2969C78.1576 35.5573 78.3236 35.7428 78.5059 35.8535C78.6947 35.9642 78.8835 36.0195 79.0723 36.0195ZM95.1953 32.416C95.1953 32.8652 95.1172 33.2852 94.9609 33.6758C94.8112 34.0599 94.6061 34.4147 94.3457 34.7402C94.0918 35.0592 93.7988 35.3457 93.4668 35.5996C93.1413 35.847 92.7995 36.0553 92.4414 36.2246C92.0898 36.4004 91.7383 36.5339 91.3867 36.625C91.0352 36.7161 90.7096 36.7617 90.4102 36.7617H90.3125C90.013 36.7552 89.694 36.7064 89.3555 36.6152C89.0234 36.5241 88.6914 36.3906 88.3594 36.2148C88.0339 36.0456 87.7214 35.834 87.4219 35.5801C87.1289 35.3262 86.8685 35.0299 86.6406 34.6914C86.4128 34.3464 86.2305 33.9622 86.0938 33.5391C85.957 33.1094 85.8887 32.6374 85.8887 32.123C85.8887 31.5957 85.9701 31.1139 86.1328 30.6777C86.2956 30.235 86.5072 29.8411 86.7676 29.4961C87.0345 29.151 87.334 28.8516 87.666 28.5977C88.0046 28.3438 88.3431 28.1322 88.6816 27.9629C89.0267 27.7936 89.3555 27.6699 89.668 27.5918C89.987 27.5072 90.2637 27.4648 90.498 27.4648H90.5762C90.9733 27.4779 91.3639 27.5495 91.748 27.6797C92.1322 27.8034 92.4935 27.9759 92.832 28.1973C93.1771 28.4186 93.4928 28.6823 93.7793 28.9883C94.0723 29.2878 94.3229 29.6198 94.5312 29.9844C94.7396 30.349 94.9023 30.7363 95.0195 31.1465C95.1367 31.5566 95.1953 31.9798 95.1953 32.416ZM92.0703 32.2598C92.0703 32.097 92.0703 31.8724 92.0703 31.5859C92.0703 31.2995 92.0573 30.9935 92.0312 30.668C92.0117 30.3359 91.9727 30.0007 91.9141 29.6621C91.8555 29.3236 91.7676 29.0176 91.6504 28.7441C91.5332 28.4707 91.3802 28.2493 91.1914 28.0801C91.0091 27.9043 90.778 27.8164 90.498 27.8164C89.9642 27.8164 89.541 28.181 89.2285 28.9102C88.9225 29.6393 88.7695 30.7428 88.7695 32.2207C88.7695 32.9564 88.7988 33.5879 88.8574 34.1152C88.9225 34.6426 89.0202 35.0755 89.1504 35.4141C89.2806 35.7526 89.4499 36 89.6582 36.1562C89.8665 36.319 90.1172 36.4004 90.4102 36.4004H90.498C90.778 36.3874 91.0091 36.2995 91.1914 36.1367C91.3802 35.974 91.5332 35.7266 91.6504 35.3945C91.7741 35.056 91.8652 34.6296 91.9238 34.1152C91.9889 33.6009 92.0378 32.9824 92.0703 32.2598ZM95.498 39.7402L97.2363 39.7207L97.4609 27.6211L95.7812 27.582V27.2207L100.42 27.2988L100.342 29.2617C100.439 29.1445 100.547 29.0241 100.664 28.9004C100.788 28.7702 100.921 28.653 101.064 28.5488C101.208 28.4447 101.361 28.36 101.523 28.2949C101.686 28.2298 101.859 28.1973 102.041 28.1973C102.282 28.1973 102.546 28.2363 102.832 28.3145C103.125 28.3926 103.418 28.5098 103.711 28.666C104.004 28.8158 104.287 29.0046 104.561 29.2324C104.84 29.4538 105.085 29.7109 105.293 30.0039C105.508 30.2969 105.677 30.6257 105.801 30.9902C105.931 31.3483 105.996 31.7389 105.996 32.1621C105.996 32.5853 105.918 32.9857 105.762 33.3633C105.612 33.7344 105.41 34.0794 105.156 34.3984C104.909 34.7109 104.622 34.9941 104.297 35.248C103.978 35.4954 103.643 35.707 103.291 35.8828C102.946 36.0586 102.601 36.1921 102.256 36.2832C101.917 36.3743 101.605 36.4199 101.318 36.4199C101.279 36.4134 101.214 36.4004 101.123 36.3809C101.038 36.3678 100.938 36.3418 100.82 36.3027C100.71 36.2637 100.589 36.2083 100.459 36.1367C100.335 36.0716 100.215 35.987 100.098 35.8828L99.9414 39.7012H101.797V40.0625L95.498 40.1016V39.7402ZM101.396 36.0586C101.624 36.0586 101.823 35.9935 101.992 35.8633C102.168 35.7331 102.318 35.5638 102.441 35.3555C102.572 35.1406 102.679 34.8997 102.764 34.6328C102.848 34.3594 102.917 34.0827 102.969 33.8027C103.021 33.5163 103.057 33.2396 103.076 32.9727C103.096 32.6992 103.105 32.4551 103.105 32.2402C103.105 32.0319 103.102 31.7975 103.096 31.5371C103.089 31.2702 103.07 31.0033 103.037 30.7363C103.011 30.4629 102.972 30.196 102.92 29.9355C102.874 29.6751 102.806 29.4473 102.715 29.252C102.63 29.0501 102.523 28.8874 102.393 28.7637C102.262 28.64 102.106 28.5781 101.924 28.5781C101.755 28.5781 101.592 28.6237 101.436 28.7148C101.279 28.806 101.133 28.9232 100.996 29.0664C100.866 29.2031 100.742 29.3594 100.625 29.5352C100.514 29.7109 100.413 29.8802 100.322 30.043L100.117 35.2969C100.215 35.4596 100.326 35.5898 100.449 35.6875C100.573 35.7852 100.69 35.86 100.801 35.9121C100.918 35.9642 101.022 36 101.113 36.0195C101.211 36.0391 101.286 36.0521 101.338 36.0586H101.396ZM107.1 28.4805L108.066 28.4609C108.099 27.9596 108.135 27.4128 108.174 26.8203C108.213 26.2214 108.268 25.554 108.34 24.8184H111.445L111.123 28.3828L112.861 28.3438V28.6953L111.084 28.7441C110.993 29.7077 110.895 30.6777 110.791 31.6543C110.693 32.6309 110.645 33.6335 110.645 34.6621C110.645 35.1634 110.68 35.5443 110.752 35.8047C110.83 36.0651 110.96 36.2116 111.143 36.2441H111.24C111.559 36.2051 111.846 36.0553 112.1 35.7949C112.204 35.6842 112.308 35.5443 112.412 35.375C112.516 35.1992 112.607 34.9876 112.686 34.7402C112.764 34.4863 112.826 34.1901 112.871 33.8516C112.917 33.5065 112.939 33.1094 112.939 32.6602H113.301C113.301 33.1549 113.271 33.5911 113.213 33.9688C113.161 34.3398 113.086 34.6654 112.988 34.9453C112.891 35.2188 112.78 35.4499 112.656 35.6387C112.533 35.8275 112.406 35.9837 112.275 36.1074C111.969 36.3939 111.624 36.5566 111.24 36.5957C110.758 36.5957 110.339 36.5436 109.98 36.4395C109.629 36.3418 109.326 36.2018 109.072 36.0195C108.825 35.8438 108.62 35.6354 108.457 35.3945C108.301 35.1471 108.177 34.8802 108.086 34.5938C108.001 34.3073 107.943 34.0046 107.91 33.6855C107.878 33.3665 107.861 33.0443 107.861 32.7188C107.861 32.1133 107.881 31.498 107.92 30.873C107.959 30.248 108.001 29.5645 108.047 28.8223L107.1 28.8418V28.4805ZM121.748 36.3809C121.891 36.3678 122.028 36.2962 122.158 36.166C122.269 36.0553 122.383 35.8796 122.5 35.6387C122.617 35.3913 122.715 35.0397 122.793 34.584L123.154 34.623C123.063 35.1634 122.939 35.5768 122.783 35.8633C122.633 36.1497 122.48 36.3581 122.324 36.4883C122.142 36.6445 121.95 36.7292 121.748 36.7422C121.592 36.7422 121.39 36.7194 121.143 36.6738C120.902 36.6283 120.661 36.5469 120.42 36.4297C120.179 36.319 119.958 36.1693 119.756 35.9805C119.554 35.7917 119.414 35.5508 119.336 35.2578C119.069 35.707 118.711 36.0716 118.262 36.3516C117.812 36.638 117.301 36.7812 116.729 36.7812C116.442 36.7812 116.152 36.7487 115.859 36.6836C115.566 36.6185 115.296 36.5111 115.049 36.3613C114.808 36.2116 114.609 36.0163 114.453 35.7754C114.303 35.528 114.229 35.222 114.229 34.8574C114.229 34.4017 114.316 34.0078 114.492 33.6758C114.674 33.3372 114.915 33.0573 115.215 32.8359C115.514 32.6081 115.856 32.4388 116.24 32.3281C116.624 32.2174 117.021 32.1621 117.432 32.1621C117.712 32.1621 117.982 32.1947 118.242 32.2598C118.509 32.3249 118.779 32.4388 119.053 32.6016C119.066 32.2695 119.092 31.9375 119.131 31.6055C119.176 31.2734 119.215 30.9642 119.248 30.6777C119.268 30.5085 119.281 30.3717 119.287 30.2676C119.3 30.1634 119.31 30.0788 119.316 30.0137C119.323 29.9486 119.326 29.8997 119.326 29.8672C119.333 29.8346 119.336 29.8053 119.336 29.7793C119.336 29.1868 119.229 28.7148 119.014 28.3633C118.799 28.0117 118.512 27.8359 118.154 27.8359C117.985 27.849 117.812 27.8783 117.637 27.9238C117.461 27.9694 117.301 28.0345 117.158 28.1191C117.015 28.1973 116.898 28.2982 116.807 28.4219C116.715 28.5391 116.67 28.679 116.67 28.8418C116.67 29.0176 116.725 29.1576 116.836 29.2617C116.947 29.3594 117.067 29.4603 117.197 29.5645C117.334 29.6621 117.458 29.776 117.568 29.9062C117.679 30.0365 117.734 30.2155 117.734 30.4434C117.734 30.6842 117.695 30.8861 117.617 31.0488C117.546 31.2051 117.448 31.332 117.324 31.4297C117.201 31.5273 117.061 31.599 116.904 31.6445C116.748 31.6836 116.592 31.7031 116.436 31.7031C116.273 31.7031 116.11 31.6771 115.947 31.625C115.791 31.5664 115.648 31.4785 115.518 31.3613C115.394 31.2441 115.29 31.0911 115.205 30.9023C115.127 30.7135 115.088 30.4857 115.088 30.2188C115.088 29.8607 115.176 29.5189 115.352 29.1934C115.527 28.8678 115.758 28.5814 116.045 28.334C116.331 28.0866 116.657 27.888 117.021 27.7383C117.386 27.582 117.757 27.4974 118.135 27.4844C118.486 27.4844 118.867 27.556 119.277 27.6992C119.694 27.8424 120.081 28.0866 120.439 28.4316C120.804 28.7767 121.107 29.2389 121.348 29.8184C121.589 30.3978 121.709 31.1237 121.709 31.9961C121.709 32.4062 121.693 32.7969 121.66 33.168C121.634 33.5391 121.605 33.8841 121.572 34.2031C121.54 34.5156 121.507 34.8021 121.475 35.0625C121.449 35.3229 121.436 35.5475 121.436 35.7363C121.436 35.9251 121.452 36.0749 121.484 36.1855C121.523 36.2962 121.598 36.3613 121.709 36.3809H121.748ZM119.17 34.7402C119.131 34.5189 119.102 34.2878 119.082 34.0469C119.062 33.7995 119.053 33.5521 119.053 33.3047V33.041C118.87 32.8913 118.672 32.7806 118.457 32.709C118.249 32.6374 118.06 32.6016 117.891 32.6016C117.48 32.6016 117.168 32.7708 116.953 33.1094C116.738 33.4479 116.631 33.8971 116.631 34.457C116.631 34.6914 116.654 34.9095 116.699 35.1113C116.751 35.3132 116.82 35.4889 116.904 35.6387C116.995 35.7819 117.103 35.8958 117.227 35.9805C117.357 36.0586 117.5 36.0977 117.656 36.0977C117.812 36.0977 117.962 36.0586 118.105 35.9805C118.255 35.9023 118.395 35.8014 118.525 35.6777C118.656 35.5475 118.776 35.401 118.887 35.2383C118.997 35.0755 119.092 34.9095 119.17 34.7402ZM127.998 39.7402L129.736 39.7207L129.961 27.6211L128.281 27.582V27.2207L132.92 27.2988L132.842 29.2617C132.939 29.1445 133.047 29.0241 133.164 28.9004C133.288 28.7702 133.421 28.653 133.564 28.5488C133.708 28.4447 133.861 28.36 134.023 28.2949C134.186 28.2298 134.359 28.1973 134.541 28.1973C134.782 28.1973 135.046 28.2363 135.332 28.3145C135.625 28.3926 135.918 28.5098 136.211 28.666C136.504 28.8158 136.787 29.0046 137.061 29.2324C137.34 29.4538 137.585 29.7109 137.793 30.0039C138.008 30.2969 138.177 30.6257 138.301 30.9902C138.431 31.3483 138.496 31.7389 138.496 32.1621C138.496 32.5853 138.418 32.9857 138.262 33.3633C138.112 33.7344 137.91 34.0794 137.656 34.3984C137.409 34.7109 137.122 34.9941 136.797 35.248C136.478 35.4954 136.143 35.707 135.791 35.8828C135.446 36.0586 135.101 36.1921 134.756 36.2832C134.417 36.3743 134.105 36.4199 133.818 36.4199C133.779 36.4134 133.714 36.4004 133.623 36.3809C133.538 36.3678 133.438 36.3418 133.32 36.3027C133.21 36.2637 133.089 36.2083 132.959 36.1367C132.835 36.0716 132.715 35.987 132.598 35.8828L132.441 39.7012H134.297V40.0625L127.998 40.1016V39.7402ZM133.896 36.0586C134.124 36.0586 134.323 35.9935 134.492 35.8633C134.668 35.7331 134.818 35.5638 134.941 35.3555C135.072 35.1406 135.179 34.8997 135.264 34.6328C135.348 34.3594 135.417 34.0827 135.469 33.8027C135.521 33.5163 135.557 33.2396 135.576 32.9727C135.596 32.6992 135.605 32.4551 135.605 32.2402C135.605 32.0319 135.602 31.7975 135.596 31.5371C135.589 31.2702 135.57 31.0033 135.537 30.7363C135.511 30.4629 135.472 30.196 135.42 29.9355C135.374 29.6751 135.306 29.4473 135.215 29.252C135.13 29.0501 135.023 28.8874 134.893 28.7637C134.762 28.64 134.606 28.5781 134.424 28.5781C134.255 28.5781 134.092 28.6237 133.936 28.7148C133.779 28.806 133.633 28.9232 133.496 29.0664C133.366 29.2031 133.242 29.3594 133.125 29.5352C133.014 29.7109 132.913 29.8802 132.822 30.043L132.617 35.2969C132.715 35.4596 132.826 35.5898 132.949 35.6875C133.073 35.7852 133.19 35.86 133.301 35.9121C133.418 35.9642 133.522 36 133.613 36.0195C133.711 36.0391 133.786 36.0521 133.838 36.0586H133.896ZM147.119 36.3809C147.262 36.3678 147.399 36.2962 147.529 36.166C147.64 36.0553 147.754 35.8796 147.871 35.6387C147.988 35.3913 148.086 35.0397 148.164 34.584L148.525 34.623C148.434 35.1634 148.311 35.5768 148.154 35.8633C148.005 36.1497 147.852 36.3581 147.695 36.4883C147.513 36.6445 147.321 36.7292 147.119 36.7422C146.963 36.7422 146.761 36.7194 146.514 36.6738C146.273 36.6283 146.032 36.5469 145.791 36.4297C145.55 36.319 145.329 36.1693 145.127 35.9805C144.925 35.7917 144.785 35.5508 144.707 35.2578C144.44 35.707 144.082 36.0716 143.633 36.3516C143.184 36.638 142.673 36.7812 142.1 36.7812C141.813 36.7812 141.523 36.7487 141.23 36.6836C140.938 36.6185 140.667 36.5111 140.42 36.3613C140.179 36.2116 139.98 36.0163 139.824 35.7754C139.674 35.528 139.6 35.222 139.6 34.8574C139.6 34.4017 139.688 34.0078 139.863 33.6758C140.046 33.3372 140.286 33.0573 140.586 32.8359C140.885 32.6081 141.227 32.4388 141.611 32.3281C141.995 32.2174 142.393 32.1621 142.803 32.1621C143.083 32.1621 143.353 32.1947 143.613 32.2598C143.88 32.3249 144.15 32.4388 144.424 32.6016C144.437 32.2695 144.463 31.9375 144.502 31.6055C144.548 31.2734 144.587 30.9642 144.619 30.6777C144.639 30.5085 144.652 30.3717 144.658 30.2676C144.671 30.1634 144.681 30.0788 144.688 30.0137C144.694 29.9486 144.697 29.8997 144.697 29.8672C144.704 29.8346 144.707 29.8053 144.707 29.7793C144.707 29.1868 144.6 28.7148 144.385 28.3633C144.17 28.0117 143.883 27.8359 143.525 27.8359C143.356 27.849 143.184 27.8783 143.008 27.9238C142.832 27.9694 142.673 28.0345 142.529 28.1191C142.386 28.1973 142.269 28.2982 142.178 28.4219C142.087 28.5391 142.041 28.679 142.041 28.8418C142.041 29.0176 142.096 29.1576 142.207 29.2617C142.318 29.3594 142.438 29.4603 142.568 29.5645C142.705 29.6621 142.829 29.776 142.939 29.9062C143.05 30.0365 143.105 30.2155 143.105 30.4434C143.105 30.6842 143.066 30.8861 142.988 31.0488C142.917 31.2051 142.819 31.332 142.695 31.4297C142.572 31.5273 142.432 31.599 142.275 31.6445C142.119 31.6836 141.963 31.7031 141.807 31.7031C141.644 31.7031 141.481 31.6771 141.318 31.625C141.162 31.5664 141.019 31.4785 140.889 31.3613C140.765 31.2441 140.661 31.0911 140.576 30.9023C140.498 30.7135 140.459 30.4857 140.459 30.2188C140.459 29.8607 140.547 29.5189 140.723 29.1934C140.898 28.8678 141.13 28.5814 141.416 28.334C141.702 28.0866 142.028 27.888 142.393 27.7383C142.757 27.582 143.128 27.4974 143.506 27.4844C143.857 27.4844 144.238 27.556 144.648 27.6992C145.065 27.8424 145.452 28.0866 145.811 28.4316C146.175 28.7767 146.478 29.2389 146.719 29.8184C146.96 30.3978 147.08 31.1237 147.08 31.9961C147.08 32.4062 147.064 32.7969 147.031 33.168C147.005 33.5391 146.976 33.8841 146.943 34.2031C146.911 34.5156 146.878 34.8021 146.846 35.0625C146.82 35.3229 146.807 35.5475 146.807 35.7363C146.807 35.9251 146.823 36.0749 146.855 36.1855C146.895 36.2962 146.969 36.3613 147.08 36.3809H147.119ZM144.541 34.7402C144.502 34.5189 144.473 34.2878 144.453 34.0469C144.434 33.7995 144.424 33.5521 144.424 33.3047V33.041C144.242 32.8913 144.043 32.7806 143.828 32.709C143.62 32.6374 143.431 32.6016 143.262 32.6016C142.852 32.6016 142.539 32.7708 142.324 33.1094C142.109 33.4479 142.002 33.8971 142.002 34.457C142.002 34.6914 142.025 34.9095 142.07 35.1113C142.122 35.3132 142.191 35.4889 142.275 35.6387C142.367 35.7819 142.474 35.8958 142.598 35.9805C142.728 36.0586 142.871 36.0977 143.027 36.0977C143.184 36.0977 143.333 36.0586 143.477 35.9805C143.626 35.9023 143.766 35.8014 143.896 35.6777C144.027 35.5475 144.147 35.401 144.258 35.2383C144.368 35.0755 144.463 34.9095 144.541 34.7402ZM149.092 28.4805L150.059 28.4609C150.091 27.9596 150.127 27.4128 150.166 26.8203C150.205 26.2214 150.26 25.554 150.332 24.8184H153.438L153.115 28.3828L154.854 28.3438V28.6953L153.076 28.7441C152.985 29.7077 152.887 30.6777 152.783 31.6543C152.686 32.6309 152.637 33.6335 152.637 34.6621C152.637 35.1634 152.673 35.5443 152.744 35.8047C152.822 36.0651 152.952 36.2116 153.135 36.2441H153.232C153.551 36.2051 153.838 36.0553 154.092 35.7949C154.196 35.6842 154.3 35.5443 154.404 35.375C154.508 35.1992 154.6 34.9876 154.678 34.7402C154.756 34.4863 154.818 34.1901 154.863 33.8516C154.909 33.5065 154.932 33.1094 154.932 32.6602H155.293C155.293 33.1549 155.264 33.5911 155.205 33.9688C155.153 34.3398 155.078 34.6654 154.98 34.9453C154.883 35.2188 154.772 35.4499 154.648 35.6387C154.525 35.8275 154.398 35.9837 154.268 36.1074C153.962 36.3939 153.617 36.5566 153.232 36.5957C152.751 36.5957 152.331 36.5436 151.973 36.4395C151.621 36.3418 151.318 36.2018 151.064 36.0195C150.817 35.8438 150.612 35.6354 150.449 35.3945C150.293 35.1471 150.169 34.8802 150.078 34.5938C149.993 34.3073 149.935 34.0046 149.902 33.6855C149.87 33.3665 149.854 33.0443 149.854 32.7188C149.854 32.1133 149.873 31.498 149.912 30.873C149.951 30.248 149.993 29.5645 150.039 28.8223L149.092 28.8418V28.4805ZM156.221 28.3828L160.566 28.2559L160.42 35.6582H162.061V36.0195H155.986V35.6582H157.607L157.666 28.6953L156.221 28.7441V28.3828ZM160.781 25.7754C160.762 26.0293 160.693 26.2702 160.576 26.498C160.465 26.7194 160.319 26.9147 160.137 27.084C159.954 27.2467 159.746 27.3737 159.512 27.4648C159.277 27.556 159.033 27.5951 158.779 27.582C158.512 27.5755 158.268 27.5169 158.047 27.4062C157.826 27.2956 157.637 27.1523 157.48 26.9766C157.324 26.7943 157.207 26.5859 157.129 26.3516C157.051 26.1172 157.021 25.8665 157.041 25.5996C157.054 25.3457 157.119 25.1081 157.236 24.8867C157.354 24.6654 157.5 24.4766 157.676 24.3203C157.858 24.1576 158.066 24.0339 158.301 23.9492C158.535 23.8581 158.776 23.8158 159.023 23.8223C159.284 23.8288 159.525 23.8874 159.746 23.998C159.967 24.1022 160.156 24.2422 160.312 24.418C160.475 24.5938 160.596 24.7988 160.674 25.0332C160.758 25.2676 160.794 25.515 160.781 25.7754ZM162.744 28.4805L163.711 28.4609C163.743 27.9596 163.779 27.4128 163.818 26.8203C163.857 26.2214 163.913 25.554 163.984 24.8184H167.09L166.768 28.3828L168.506 28.3438V28.6953L166.729 28.7441C166.637 29.7077 166.54 30.6777 166.436 31.6543C166.338 32.6309 166.289 33.6335 166.289 34.6621C166.289 35.1634 166.325 35.5443 166.396 35.8047C166.475 36.0651 166.605 36.2116 166.787 36.2441H166.885C167.204 36.2051 167.49 36.0553 167.744 35.7949C167.848 35.6842 167.952 35.5443 168.057 35.375C168.161 35.1992 168.252 34.9876 168.33 34.7402C168.408 34.4863 168.47 34.1901 168.516 33.8516C168.561 33.5065 168.584 33.1094 168.584 32.6602H168.945C168.945 33.1549 168.916 33.5911 168.857 33.9688C168.805 34.3398 168.73 34.6654 168.633 34.9453C168.535 35.2188 168.424 35.4499 168.301 35.6387C168.177 35.8275 168.05 35.9837 167.92 36.1074C167.614 36.3939 167.269 36.5566 166.885 36.5957C166.403 36.5957 165.983 36.5436 165.625 36.4395C165.273 36.3418 164.971 36.2018 164.717 36.0195C164.469 35.8438 164.264 35.6354 164.102 35.3945C163.945 35.1471 163.822 34.8802 163.73 34.5938C163.646 34.3073 163.587 34.0046 163.555 33.6855C163.522 33.3665 163.506 33.0443 163.506 32.7188C163.506 32.1133 163.525 31.498 163.564 30.873C163.604 30.248 163.646 29.5645 163.691 28.8223L162.744 28.8418V28.4805ZM177.393 36.3809C177.536 36.3678 177.673 36.2962 177.803 36.166C177.913 36.0553 178.027 35.8796 178.145 35.6387C178.262 35.3913 178.359 35.0397 178.438 34.584L178.799 34.623C178.708 35.1634 178.584 35.5768 178.428 35.8633C178.278 36.1497 178.125 36.3581 177.969 36.4883C177.786 36.6445 177.594 36.7292 177.393 36.7422C177.236 36.7422 177.035 36.7194 176.787 36.6738C176.546 36.6283 176.305 36.5469 176.064 36.4297C175.824 36.319 175.602 36.1693 175.4 35.9805C175.199 35.7917 175.059 35.5508 174.98 35.2578C174.714 35.707 174.355 36.0716 173.906 36.3516C173.457 36.638 172.946 36.7812 172.373 36.7812C172.087 36.7812 171.797 36.7487 171.504 36.6836C171.211 36.6185 170.941 36.5111 170.693 36.3613C170.452 36.2116 170.254 36.0163 170.098 35.7754C169.948 35.528 169.873 35.222 169.873 34.8574C169.873 34.4017 169.961 34.0078 170.137 33.6758C170.319 33.3372 170.56 33.0573 170.859 32.8359C171.159 32.6081 171.501 32.4388 171.885 32.3281C172.269 32.2174 172.666 32.1621 173.076 32.1621C173.356 32.1621 173.626 32.1947 173.887 32.2598C174.154 32.3249 174.424 32.4388 174.697 32.6016C174.71 32.2695 174.736 31.9375 174.775 31.6055C174.821 31.2734 174.86 30.9642 174.893 30.6777C174.912 30.5085 174.925 30.3717 174.932 30.2676C174.945 30.1634 174.954 30.0788 174.961 30.0137C174.967 29.9486 174.971 29.8997 174.971 29.8672C174.977 29.8346 174.98 29.8053 174.98 29.7793C174.98 29.1868 174.873 28.7148 174.658 28.3633C174.443 28.0117 174.157 27.8359 173.799 27.8359C173.63 27.849 173.457 27.8783 173.281 27.9238C173.105 27.9694 172.946 28.0345 172.803 28.1191C172.66 28.1973 172.542 28.2982 172.451 28.4219C172.36 28.5391 172.314 28.679 172.314 28.8418C172.314 29.0176 172.37 29.1576 172.48 29.2617C172.591 29.3594 172.712 29.4603 172.842 29.5645C172.979 29.6621 173.102 29.776 173.213 29.9062C173.324 30.0365 173.379 30.2155 173.379 30.4434C173.379 30.6842 173.34 30.8861 173.262 31.0488C173.19 31.2051 173.092 31.332 172.969 31.4297C172.845 31.5273 172.705 31.599 172.549 31.6445C172.393 31.6836 172.236 31.7031 172.08 31.7031C171.917 31.7031 171.755 31.6771 171.592 31.625C171.436 31.5664 171.292 31.4785 171.162 31.3613C171.038 31.2441 170.934 31.0911 170.85 30.9023C170.771 30.7135 170.732 30.4857 170.732 30.2188C170.732 29.8607 170.82 29.5189 170.996 29.1934C171.172 28.8678 171.403 28.5814 171.689 28.334C171.976 28.0866 172.301 27.888 172.666 27.7383C173.031 27.582 173.402 27.4974 173.779 27.4844C174.131 27.4844 174.512 27.556 174.922 27.6992C175.339 27.8424 175.726 28.0866 176.084 28.4316C176.449 28.7767 176.751 29.2389 176.992 29.8184C177.233 30.3978 177.354 31.1237 177.354 31.9961C177.354 32.4062 177.337 32.7969 177.305 33.168C177.279 33.5391 177.249 33.8841 177.217 34.2031C177.184 34.5156 177.152 34.8021 177.119 35.0625C177.093 35.3229 177.08 35.5475 177.08 35.7363C177.08 35.9251 177.096 36.0749 177.129 36.1855C177.168 36.2962 177.243 36.3613 177.354 36.3809H177.393ZM174.814 34.7402C174.775 34.5189 174.746 34.2878 174.727 34.0469C174.707 33.7995 174.697 33.5521 174.697 33.3047V33.041C174.515 32.8913 174.316 32.7806 174.102 32.709C173.893 32.6374 173.704 32.6016 173.535 32.6016C173.125 32.6016 172.812 32.7708 172.598 33.1094C172.383 33.4479 172.275 33.8971 172.275 34.457C172.275 34.6914 172.298 34.9095 172.344 35.1113C172.396 35.3132 172.464 35.4889 172.549 35.6387C172.64 35.7819 172.747 35.8958 172.871 35.9805C173.001 36.0586 173.145 36.0977 173.301 36.0977C173.457 36.0977 173.607 36.0586 173.75 35.9805C173.9 35.9023 174.04 35.8014 174.17 35.6777C174.3 35.5475 174.421 35.401 174.531 35.2383C174.642 35.0755 174.736 34.9095 174.814 34.7402ZM182.871 36.3613C182.474 36.3613 182.09 36.3092 181.719 36.2051C181.348 36.1074 181.009 35.9674 180.703 35.7852C180.404 35.5964 180.146 35.375 179.932 35.1211C179.723 34.8607 179.583 34.5742 179.512 34.2617C179.512 34.0794 179.538 33.9102 179.59 33.7539C179.648 33.5977 179.727 33.4609 179.824 33.3438C179.928 33.2266 180.049 33.1354 180.186 33.0703C180.322 32.9987 180.469 32.9629 180.625 32.9629C180.814 32.9629 180.999 33.0182 181.182 33.1289C181.364 33.2396 181.52 33.4089 181.65 33.6367C181.755 33.8255 181.829 34.0143 181.875 34.2031C181.927 34.3919 181.966 34.5742 181.992 34.75C182.025 34.9258 182.051 35.0918 182.07 35.248C182.096 35.3978 182.135 35.528 182.188 35.6387C182.246 35.7493 182.327 35.8372 182.432 35.9023C182.536 35.9674 182.682 36 182.871 36C183.177 36 183.441 35.9707 183.662 35.9121C183.883 35.8535 184.066 35.7721 184.209 35.668C184.352 35.5638 184.456 35.4466 184.521 35.3164C184.593 35.1862 184.629 35.0462 184.629 34.8965C184.629 34.7272 184.583 34.5547 184.492 34.3789C184.401 34.2031 184.268 34.0404 184.092 33.8906C183.916 33.7344 183.695 33.5944 183.428 33.4707C183.167 33.347 182.861 33.2559 182.51 33.1973C182.113 33.1322 181.745 33.0345 181.406 32.9043C181.074 32.7741 180.785 32.6016 180.537 32.3867C180.29 32.1654 180.094 31.8984 179.951 31.5859C179.814 31.2669 179.746 30.8861 179.746 30.4434C179.746 30.0007 179.844 29.61 180.039 29.2715C180.241 28.9264 180.498 28.6367 180.811 28.4023C181.123 28.168 181.475 27.9889 181.865 27.8652C182.256 27.7415 182.643 27.6797 183.027 27.6797C183.19 27.6797 183.379 27.6927 183.594 27.7188C183.809 27.7383 184.027 27.7773 184.248 27.8359C184.476 27.8945 184.701 27.9727 184.922 28.0703C185.143 28.168 185.339 28.2917 185.508 28.4414C185.684 28.5911 185.824 28.7702 185.928 28.9785C186.032 29.1868 186.084 29.4277 186.084 29.7012C186.084 29.8574 186.055 30.0039 185.996 30.1406C185.944 30.2773 185.869 30.3978 185.771 30.502C185.68 30.5996 185.57 30.6777 185.439 30.7363C185.316 30.7949 185.186 30.8242 185.049 30.8242C184.736 30.8242 184.499 30.7559 184.336 30.6191C184.18 30.4824 184.066 30.3099 183.994 30.1016C183.923 29.8932 183.874 29.6719 183.848 29.4375C183.828 29.1966 183.796 28.972 183.75 28.7637C183.704 28.5553 183.63 28.3828 183.525 28.2461C183.428 28.1094 183.262 28.041 183.027 28.041C182.585 28.0736 182.236 28.181 181.982 28.3633C181.735 28.5391 181.611 28.7767 181.611 29.0762C181.611 29.2715 181.654 29.4635 181.738 29.6523C181.823 29.8346 181.943 30.0039 182.1 30.1602C182.262 30.3164 182.458 30.4531 182.686 30.5703C182.913 30.681 183.167 30.7591 183.447 30.8047C183.831 30.8698 184.199 30.974 184.551 31.1172C184.902 31.2604 185.212 31.4427 185.479 31.6641C185.752 31.8854 185.967 32.1458 186.123 32.4453C186.286 32.7383 186.367 33.0638 186.367 33.4219C186.367 33.7799 186.273 34.1348 186.084 34.4863C185.902 34.8379 185.651 35.1536 185.332 35.4336C185.013 35.707 184.642 35.9284 184.219 36.0977C183.796 36.2734 183.346 36.3613 182.871 36.3613Z" fill="#402751"/>
<defs>
<clipPath id="clip0_368_34">
<rect width="60" height="60" fill="white"/>
</clipPath>
</defs>
</svg>
